<<<<<<< HEAD
<mxfile host="app.diagrams.net" modified="2020-09-12T19:07:47.849Z" agent="5.0 (X11)" etag="tiC4zM-YMHjLMxE6rbO8" version="13.6.10"><diagram id="R2lEEEUBdFMjLlhIrx00" name="Page-1">7V1db+I4FP01SLsPUwVC+HgstMxUQ3eqzuzs7FPlJgasCTFyDIX99WsnzqcdSAohKUFCNHYcx77n+uB7HKctfbzcfiZgtXjEFrRbHc3atvS7VqfTH/bYN8/Y+Rldw/Az5gRZflY7yviO/oMiUxO5a2RBN1GQYmxTtEpmmthxoEkTeYAQ/JYsNsN28q4rMIdSxncT2HLuP8iiCz93YGhR/heI5ovgzm1NnFmCoLDIcBfAwm+JLLilE+xQ0cQnSJbAgQ5lZx4B+Q1Jy7hfUMp7etvqTNhnxkvfzDGe2xCskHtj4iXLNl1WZDIDS2RzM8cqGomK2O30+5Y+JhhT/2i5HUObQxXA4LdpknE2tAPh9ea4YPxps5v+1qjz5U3/SR8f50/910+ilg2w18K+wjZ0FxgcWsz+IsluhejuGdqAIuzcR2dG0LFuObqs0P3zf5DgH/gROKzzI5cCQqNz2BHFJ4g1T79rB0VEWmNpuWuinS5eExPu6U+nK1wSkDmkewqKUcA7F7uDsNxniJeQkh0r8Bb5WOhJi7h/BZnEM8om6aVAeNI8rDC8xxNGnmOJcal3RT1iWPYDlwyq8LsurorDnKqom6qol67IN41UETuIdTzK8ryogEd1JI+aAJOuCZAci42/FT+k4NVzIc8LBOHo3A0YhVCAHDZafDcxsW2DlYu84n7OAtnWFOzwmgYVBanRDG2h9ezzDS/LHHDKKnOFj/GRG7g1Pw1sNHfYscl8jt9xRKDL2jIFLhUlMr1yAwmF271uFIBjJMFpB+DE3KxjqNxM17I9KgFhUbz0wwwQAMW6ThGwnxmtA2fuYZaEhNvVInj1Ixh9PGPFPQ2S+w30idUzPhvrY2xjjqzjM4JXzOucMWIf1t2xdmO0DNaAMUu3ozT78OKEjrHjUgKQBwdkQL1BDtaI4pW4jw1nQTOIMCY/fsWUMp7OgnWvXx/GWmCr54S2NGS7ErJPX4tgi1lfZ7ZH2wtkWdDxhyT/VQcR3goolfYPbZ4GIz0Qc+Kh58YjBoB+Tvsbkv0frJALNZ+0//r2g3//PZ22wmlJncAJWNEvO3JXwETOfOpf2UuhZ5SB3raVOZo650Sz12SeVE/KTsOTvap5si/PWL62i4B7prGYE4BebgCqIsaBZHBz7bI+Q/LCrlNRY+2wOMiLJwerLjw4vPJgOTw4rJoHA4XnndDWiwWHuc1fFQu2Ze0FE4txoAUo5AKd/6cRNJgfrbrQYEeOm8c24tqBm4lTg4SOdkAm+4SOngKw9rA0xOR4uEG/XEWUjvzB2R6pQwVueaNRjrUvSesIXbfQr1n3rAjI8fGDJRix8WpHAfy2Seyq+32To+IGsWWReX5htlQJHudlSzkAr+FgzGv/fm77V8aNcszs4OUrgS9mSJDmApA/DO3Ppsz4C8BWASX+/PTr67fxZvV0O3uyfu3A82T1XbFWzsCwbWThy8VRgkcRF2QHAanVzvAZksog7EgQWg66KMXxtIBVPubkKHsG2RB7cVjvl3zM4ctSSk4LX79q+BRL0ARba5PDdhEiyXF4dZJ46bmfBumVBZgcRxcZSx981p8b1mxfr8XTIMrmyfH5B1JI3oOHocbjDHK/sjlyPP1gRWR42QLJCeGrQP9XNu+4EPqDE6VWIlGe83EQZfOOW+A+qzjyHusP6kWLikVnoY2sInJsVlBdBLa60KFiMdvEFpo3D71iIVpXqxw5WRNZEWgi/LJ2EIvB0BXCAxCqorbzQiiH2d7ccgOhxWx5lbeykKtc3mrniLcr2H/FbkN2v+KJf3nixgiSd9v4ybtdYlaS2lOlfJIkvj9LLfzpB+cp5e7H6qd8JdgmWXQ/lj5MVmSknel0+7HULiYH/s+QjW3sXMyTSkeRQnpLllI0VYpw/dJYodFr78epPr6711eGa8vCwYXrcL431yjilAP8B0tQ4lWIy49fXULP4GbNZMvjxKADbFm5FteRZYUPwJbvhsN35fpQZTCScm9hrR0whXiyBORqQ5KN3uZfKkmec9+WGtvjNjbUfsWic1gKOC8rqjb2713KrR0YJS5UZKFVGybMsb4XE9OEeRd0GYhloTgWJvKJY3CLaHgZO45dxVLRRTxRXFCLvxlp7zT54JuRDo82FbsFeUfKbv20GvPe1yANtGRFklqTIbsx3MEuVkz8XmU2OH0fvWsUaldguNz96CXqZwd+i0+qGepySDUGDkUWsJrEbweEw0EK+YFRMbXp8nQ9tgp0lXrTUm+3p0BsoECsPKlXb/S8/Dhh0Xf3QlKvCtzyhuOHfgHXuxCp2Uxdz5ip71kYb7jYm4Xgntn7WWNd/foarrL4UiX2npcvj1v2rIAttSPAyBCVKqNKeV0yeg7zoh4kKhnA2jDl9UVdZTGlSvE9K1N25fi8hiPxCPsP60WOXXkZ8id0LE6KCXps1mOyhaCrCy12ZY1E9bZP1m+alH0lhYJbB5nAvhUnlgwwD0RPuojBlSRAznFgTbHrSy2n2kqaet9WpytLG6p3XqTl1dPZOYewEZPZTRu4LjJbqcdVo2yVAB9q7B9CgBeAHHzyNcdyV5kCfEoiSw/EvPq7tLd5kKroRPp7N62/9/br71L5/lF6OktG/8HDLx791xX9/n8=</diagram></mxfile>
=======
<mxfile host="app.diagrams.net" modified="2020-09-13T21:08:06.156Z" agent="5.0 (X11)" etag="jj9l53KDq1_8VUK6a5y0" version="13.6.10" type="github">
  <diagram id="R2lEEEUBdFMjLlhIrx00" name="Page-1">
    <mxGraphModel dx="796" dy="455" grid="1" gridSize="10" guides="1" tooltips="1" connect="1" arrows="1" fold="1" page="1" pageScale="1" pageWidth="850" pageHeight="1100" math="0" shadow="0" extFonts="Permanent Marker^https://fonts.googleapis.com/css?family=Permanent+Marker">
      <root>
        <mxCell id="0" />
        <mxCell id="1" parent="0" />
        <mxCell id="mPAn8IbKy9XAQSt9m1cG-1" value="" style="edgeStyle=entityRelationEdgeStyle;endArrow=ERzeroToMany;startArrow=ERone;endFill=1;startFill=0;" edge="1" parent="1" source="mPAn8IbKy9XAQSt9m1cG-13" target="mPAn8IbKy9XAQSt9m1cG-6">
          <mxGeometry width="100" height="100" relative="1" as="geometry">
            <mxPoint x="340" y="720" as="sourcePoint" />
            <mxPoint x="440" y="620" as="targetPoint" />
          </mxGeometry>
        </mxCell>
        <mxCell id="mPAn8IbKy9XAQSt9m1cG-2" value="Factura" style="shape=table;startSize=30;container=1;collapsible=1;childLayout=tableLayout;fixedRows=1;rowLines=0;fontStyle=1;align=center;resizeLast=1;" vertex="1" parent="1">
          <mxGeometry x="450" y="120" width="250" height="130" as="geometry" />
        </mxCell>
        <mxCell id="mPAn8IbKy9XAQSt9m1cG-3" value="" style="shape=partialRectangle;collapsible=0;dropTarget=0;pointerEvents=0;fillColor=none;points=[[0,0.5],[1,0.5]];portConstraint=eastwest;top=0;left=0;right=0;bottom=1;" vertex="1" parent="mPAn8IbKy9XAQSt9m1cG-2">
          <mxGeometry y="30" width="250" height="30" as="geometry" />
        </mxCell>
        <mxCell id="mPAn8IbKy9XAQSt9m1cG-4" value="PK" style="shape=partialRectangle;overflow=hidden;connectable=0;fillColor=none;top=0;left=0;bottom=0;right=0;fontStyle=1;" vertex="1" parent="mPAn8IbKy9XAQSt9m1cG-3">
          <mxGeometry width="30" height="30" as="geometry" />
        </mxCell>
        <mxCell id="mPAn8IbKy9XAQSt9m1cG-5" value="IdFactura int NOT NULL " style="shape=partialRectangle;overflow=hidden;connectable=0;fillColor=none;top=0;left=0;bottom=0;right=0;align=left;spacingLeft=6;fontStyle=5;" vertex="1" parent="mPAn8IbKy9XAQSt9m1cG-3">
          <mxGeometry x="30" width="220" height="30" as="geometry" />
        </mxCell>
        <mxCell id="mPAn8IbKy9XAQSt9m1cG-6" value="" style="shape=partialRectangle;collapsible=0;dropTarget=0;pointerEvents=0;fillColor=none;points=[[0,0.5],[1,0.5]];portConstraint=eastwest;top=0;left=0;right=0;bottom=0;" vertex="1" parent="mPAn8IbKy9XAQSt9m1cG-2">
          <mxGeometry y="60" width="250" height="30" as="geometry" />
        </mxCell>
        <mxCell id="mPAn8IbKy9XAQSt9m1cG-7" value="FK1" style="shape=partialRectangle;overflow=hidden;connectable=0;fillColor=none;top=0;left=0;bottom=0;right=0;" vertex="1" parent="mPAn8IbKy9XAQSt9m1cG-6">
          <mxGeometry width="30" height="30" as="geometry" />
        </mxCell>
        <mxCell id="mPAn8IbKy9XAQSt9m1cG-8" value="IdCliente int NOT NULL" style="shape=partialRectangle;overflow=hidden;connectable=0;fillColor=none;top=0;left=0;bottom=0;right=0;align=left;spacingLeft=6;" vertex="1" parent="mPAn8IbKy9XAQSt9m1cG-6">
          <mxGeometry x="30" width="220" height="30" as="geometry" />
        </mxCell>
        <mxCell id="mPAn8IbKy9XAQSt9m1cG-9" value="" style="shape=partialRectangle;collapsible=0;dropTarget=0;pointerEvents=0;fillColor=none;points=[[0,0.5],[1,0.5]];portConstraint=eastwest;top=0;left=0;right=0;bottom=0;" vertex="1" parent="mPAn8IbKy9XAQSt9m1cG-2">
          <mxGeometry y="90" width="250" height="30" as="geometry" />
        </mxCell>
        <mxCell id="mPAn8IbKy9XAQSt9m1cG-10" value="" style="shape=partialRectangle;overflow=hidden;connectable=0;fillColor=none;top=0;left=0;bottom=0;right=0;" vertex="1" parent="mPAn8IbKy9XAQSt9m1cG-9">
          <mxGeometry width="30" height="30" as="geometry" />
        </mxCell>
        <mxCell id="mPAn8IbKy9XAQSt9m1cG-11" value="fecha_factura date NOT NULL" style="shape=partialRectangle;overflow=hidden;connectable=0;fillColor=none;top=0;left=0;bottom=0;right=0;align=left;spacingLeft=6;" vertex="1" parent="mPAn8IbKy9XAQSt9m1cG-9">
          <mxGeometry x="30" width="220" height="30" as="geometry" />
        </mxCell>
        <mxCell id="mPAn8IbKy9XAQSt9m1cG-12" value="Clientes" style="shape=table;startSize=30;container=1;collapsible=1;childLayout=tableLayout;fixedRows=1;rowLines=0;fontStyle=1;align=center;resizeLast=1;" vertex="1" parent="1">
          <mxGeometry x="110" y="120" width="260" height="190" as="geometry" />
        </mxCell>
        <mxCell id="mPAn8IbKy9XAQSt9m1cG-13" value="" style="shape=partialRectangle;collapsible=0;dropTarget=0;pointerEvents=0;fillColor=none;points=[[0,0.5],[1,0.5]];portConstraint=eastwest;top=0;left=0;right=0;bottom=1;" vertex="1" parent="mPAn8IbKy9XAQSt9m1cG-12">
          <mxGeometry y="30" width="260" height="30" as="geometry" />
        </mxCell>
        <mxCell id="mPAn8IbKy9XAQSt9m1cG-14" value="PK" style="shape=partialRectangle;overflow=hidden;connectable=0;fillColor=none;top=0;left=0;bottom=0;right=0;fontStyle=1;" vertex="1" parent="mPAn8IbKy9XAQSt9m1cG-13">
          <mxGeometry width="40" height="30" as="geometry" />
        </mxCell>
        <mxCell id="mPAn8IbKy9XAQSt9m1cG-15" value="IdCliente int NOT NULL " style="shape=partialRectangle;overflow=hidden;connectable=0;fillColor=none;top=0;left=0;bottom=0;right=0;align=left;spacingLeft=6;fontStyle=5;" vertex="1" parent="mPAn8IbKy9XAQSt9m1cG-13">
          <mxGeometry x="40" width="220" height="30" as="geometry" />
        </mxCell>
        <mxCell id="mPAn8IbKy9XAQSt9m1cG-16" value="" style="shape=partialRectangle;collapsible=0;dropTarget=0;pointerEvents=0;fillColor=none;points=[[0,0.5],[1,0.5]];portConstraint=eastwest;top=0;left=0;right=0;bottom=0;" vertex="1" parent="mPAn8IbKy9XAQSt9m1cG-12">
          <mxGeometry y="60" width="260" height="30" as="geometry" />
        </mxCell>
        <mxCell id="mPAn8IbKy9XAQSt9m1cG-17" value="" style="shape=partialRectangle;overflow=hidden;connectable=0;fillColor=none;top=0;left=0;bottom=0;right=0;" vertex="1" parent="mPAn8IbKy9XAQSt9m1cG-16">
          <mxGeometry width="40" height="30" as="geometry" />
        </mxCell>
        <mxCell id="mPAn8IbKy9XAQSt9m1cG-18" value="nombre_cliente char(50) NOT NULL" style="shape=partialRectangle;overflow=hidden;connectable=0;fillColor=none;top=0;left=0;bottom=0;right=0;align=left;spacingLeft=6;" vertex="1" parent="mPAn8IbKy9XAQSt9m1cG-16">
          <mxGeometry x="40" width="220" height="30" as="geometry" />
        </mxCell>
        <mxCell id="mPAn8IbKy9XAQSt9m1cG-19" value="apellido_cliente char(50) NOT NULL" style="shape=partialRectangle;overflow=hidden;connectable=0;fillColor=none;top=0;left=0;bottom=0;right=0;align=left;spacingLeft=6;" vertex="1" parent="1">
          <mxGeometry x="150" y="210" width="220" height="30" as="geometry" />
        </mxCell>
        <mxCell id="mPAn8IbKy9XAQSt9m1cG-20" value="dni int NOT NULL" style="shape=partialRectangle;overflow=hidden;connectable=0;fillColor=none;top=0;left=0;bottom=0;right=0;align=left;spacingLeft=6;" vertex="1" parent="1">
          <mxGeometry x="150" y="240" width="220" height="30" as="geometry" />
        </mxCell>
        <mxCell id="mPAn8IbKy9XAQSt9m1cG-21" value="fecha_nacimiento date NOT NULL" style="shape=partialRectangle;overflow=hidden;connectable=0;fillColor=none;top=0;left=0;bottom=0;right=0;align=left;spacingLeft=6;" vertex="1" parent="1">
          <mxGeometry x="150" y="270" width="220" height="30" as="geometry" />
        </mxCell>
        <mxCell id="mPAn8IbKy9XAQSt9m1cG-22" value="Producto" style="shape=table;startSize=30;container=1;collapsible=1;childLayout=tableLayout;fixedRows=1;rowLines=0;fontStyle=1;align=center;resizeLast=1;" vertex="1" parent="1">
          <mxGeometry x="120" y="320" width="250" height="160" as="geometry" />
        </mxCell>
        <mxCell id="mPAn8IbKy9XAQSt9m1cG-23" value="" style="shape=partialRectangle;collapsible=0;dropTarget=0;pointerEvents=0;fillColor=none;points=[[0,0.5],[1,0.5]];portConstraint=eastwest;top=0;left=0;right=0;bottom=1;" vertex="1" parent="mPAn8IbKy9XAQSt9m1cG-22">
          <mxGeometry y="30" width="250" height="30" as="geometry" />
        </mxCell>
        <mxCell id="mPAn8IbKy9XAQSt9m1cG-24" value="PK" style="shape=partialRectangle;overflow=hidden;connectable=0;fillColor=none;top=0;left=0;bottom=0;right=0;fontStyle=1;" vertex="1" parent="mPAn8IbKy9XAQSt9m1cG-23">
          <mxGeometry width="30" height="30" as="geometry" />
        </mxCell>
        <mxCell id="mPAn8IbKy9XAQSt9m1cG-25" value="IdProducto int NOT NULL " style="shape=partialRectangle;overflow=hidden;connectable=0;fillColor=none;top=0;left=0;bottom=0;right=0;align=left;spacingLeft=6;fontStyle=5;" vertex="1" parent="mPAn8IbKy9XAQSt9m1cG-23">
          <mxGeometry x="30" width="220" height="30" as="geometry" />
        </mxCell>
        <mxCell id="mPAn8IbKy9XAQSt9m1cG-26" value="" style="shape=partialRectangle;collapsible=0;dropTarget=0;pointerEvents=0;fillColor=none;points=[[0,0.5],[1,0.5]];portConstraint=eastwest;top=0;left=0;right=0;bottom=0;" vertex="1" parent="mPAn8IbKy9XAQSt9m1cG-22">
          <mxGeometry y="60" width="250" height="30" as="geometry" />
        </mxCell>
        <mxCell id="mPAn8IbKy9XAQSt9m1cG-27" value="" style="shape=partialRectangle;overflow=hidden;connectable=0;fillColor=none;top=0;left=0;bottom=0;right=0;" vertex="1" parent="mPAn8IbKy9XAQSt9m1cG-26">
          <mxGeometry width="30" height="30" as="geometry" />
        </mxCell>
        <mxCell id="mPAn8IbKy9XAQSt9m1cG-28" value="nombre_producto char(50) NOT NULL" style="shape=partialRectangle;overflow=hidden;connectable=0;fillColor=none;top=0;left=0;bottom=0;right=0;align=left;spacingLeft=6;" vertex="1" parent="mPAn8IbKy9XAQSt9m1cG-26">
          <mxGeometry x="30" width="220" height="30" as="geometry" />
        </mxCell>
        <mxCell id="mPAn8IbKy9XAQSt9m1cG-29" value="codigo char(50) NOT NULL" style="shape=partialRectangle;overflow=hidden;connectable=0;fillColor=none;top=0;left=0;bottom=0;right=0;align=left;spacingLeft=6;" vertex="1" parent="1">
          <mxGeometry x="150" y="400" width="220" height="30" as="geometry" />
        </mxCell>
        <mxCell id="mPAn8IbKy9XAQSt9m1cG-30" value="precio_unitario char(50) NOT NULL" style="shape=partialRectangle;overflow=hidden;connectable=0;fillColor=none;top=0;left=0;bottom=0;right=0;align=left;spacingLeft=6;" vertex="1" parent="1">
          <mxGeometry x="150" y="420" width="220" height="30" as="geometry" />
        </mxCell>
        <mxCell id="mPAn8IbKy9XAQSt9m1cG-31" value="IdProveedor int NOT NULL" style="shape=partialRectangle;overflow=hidden;connectable=0;fillColor=none;top=0;left=0;bottom=0;right=0;align=left;spacingLeft=6;" vertex="1" parent="1">
          <mxGeometry x="150" y="440" width="220" height="30" as="geometry" />
        </mxCell>
        <mxCell id="mPAn8IbKy9XAQSt9m1cG-32" value="" style="edgeStyle=entityRelationEdgeStyle;endArrow=ERzeroToMany;startArrow=ERone;endFill=1;startFill=0;entryX=0;entryY=0.5;entryDx=0;entryDy=0;" edge="1" parent="1" target="mPAn8IbKy9XAQSt9m1cG-46">
          <mxGeometry width="100" height="100" relative="1" as="geometry">
            <mxPoint x="370" y="455" as="sourcePoint" />
            <mxPoint x="390" y="530" as="targetPoint" />
          </mxGeometry>
        </mxCell>
        <mxCell id="mPAn8IbKy9XAQSt9m1cG-33" value="Renglones" style="shape=table;startSize=30;container=1;collapsible=1;childLayout=tableLayout;fixedRows=1;rowLines=0;fontStyle=1;align=center;resizeLast=1;" vertex="1" parent="1">
          <mxGeometry x="450" y="270" width="250" height="170" as="geometry" />
        </mxCell>
        <mxCell id="mPAn8IbKy9XAQSt9m1cG-34" value="" style="shape=partialRectangle;collapsible=0;dropTarget=0;pointerEvents=0;fillColor=none;points=[[0,0.5],[1,0.5]];portConstraint=eastwest;top=0;left=0;right=0;bottom=1;" vertex="1" parent="mPAn8IbKy9XAQSt9m1cG-33">
          <mxGeometry y="30" width="250" height="30" as="geometry" />
        </mxCell>
        <mxCell id="mPAn8IbKy9XAQSt9m1cG-35" value="PK" style="shape=partialRectangle;overflow=hidden;connectable=0;fillColor=none;top=0;left=0;bottom=0;right=0;fontStyle=1;" vertex="1" parent="mPAn8IbKy9XAQSt9m1cG-34">
          <mxGeometry width="30" height="30" as="geometry" />
        </mxCell>
        <mxCell id="mPAn8IbKy9XAQSt9m1cG-36" value="IdRenglon int NOT NULL " style="shape=partialRectangle;overflow=hidden;connectable=0;fillColor=none;top=0;left=0;bottom=0;right=0;align=left;spacingLeft=6;fontStyle=5;" vertex="1" parent="mPAn8IbKy9XAQSt9m1cG-34">
          <mxGeometry x="30" width="220" height="30" as="geometry" />
        </mxCell>
        <mxCell id="mPAn8IbKy9XAQSt9m1cG-37" value="" style="shape=partialRectangle;collapsible=0;dropTarget=0;pointerEvents=0;fillColor=none;points=[[0,0.5],[1,0.5]];portConstraint=eastwest;top=0;left=0;right=0;bottom=0;" vertex="1" parent="mPAn8IbKy9XAQSt9m1cG-33">
          <mxGeometry y="60" width="250" height="30" as="geometry" />
        </mxCell>
        <mxCell id="mPAn8IbKy9XAQSt9m1cG-38" value="PK" style="shape=partialRectangle;overflow=hidden;connectable=0;fillColor=none;top=0;left=0;bottom=0;right=0;fontStyle=1" vertex="1" parent="mPAn8IbKy9XAQSt9m1cG-37">
          <mxGeometry width="30" height="30" as="geometry" />
        </mxCell>
        <mxCell id="mPAn8IbKy9XAQSt9m1cG-39" value="IdFactura int NOT NULL" style="shape=partialRectangle;overflow=hidden;connectable=0;fillColor=none;top=0;left=0;bottom=0;right=0;align=left;spacingLeft=6;fontStyle=1" vertex="1" parent="mPAn8IbKy9XAQSt9m1cG-37">
          <mxGeometry x="30" width="220" height="30" as="geometry" />
        </mxCell>
        <mxCell id="mPAn8IbKy9XAQSt9m1cG-40" value="" style="shape=partialRectangle;collapsible=0;dropTarget=0;pointerEvents=0;fillColor=none;points=[[0,0.5],[1,0.5]];portConstraint=eastwest;top=0;left=0;right=0;bottom=0;" vertex="1" parent="mPAn8IbKy9XAQSt9m1cG-33">
          <mxGeometry y="90" width="250" height="30" as="geometry" />
        </mxCell>
        <mxCell id="mPAn8IbKy9XAQSt9m1cG-41" value="" style="shape=partialRectangle;overflow=hidden;connectable=0;fillColor=none;top=0;left=0;bottom=0;right=0;" vertex="1" parent="mPAn8IbKy9XAQSt9m1cG-40">
          <mxGeometry width="30" height="30" as="geometry" />
        </mxCell>
        <mxCell id="mPAn8IbKy9XAQSt9m1cG-42" value="IdProducto int NOT NULL" style="shape=partialRectangle;overflow=hidden;connectable=0;fillColor=none;top=0;left=0;bottom=0;right=0;align=left;spacingLeft=6;" vertex="1" parent="mPAn8IbKy9XAQSt9m1cG-40">
          <mxGeometry x="30" width="220" height="30" as="geometry" />
        </mxCell>
        <mxCell id="mPAn8IbKy9XAQSt9m1cG-43" value="" style="endArrow=none;html=1;entryX=1;entryY=0.5;entryDx=0;entryDy=0;exitX=1;exitY=0.5;exitDx=0;exitDy=0;" edge="1" parent="1" source="mPAn8IbKy9XAQSt9m1cG-37" target="mPAn8IbKy9XAQSt9m1cG-3">
          <mxGeometry width="50" height="50" relative="1" as="geometry">
            <mxPoint x="750" y="220" as="sourcePoint" />
            <mxPoint x="800" y="170" as="targetPoint" />
            <Array as="points">
              <mxPoint x="800" y="345" />
              <mxPoint x="800" y="250" />
              <mxPoint x="800" y="165" />
            </Array>
          </mxGeometry>
        </mxCell>
        <mxCell id="mPAn8IbKy9XAQSt9m1cG-44" value="Cantidad int NOT NULL" style="shape=partialRectangle;overflow=hidden;connectable=0;fillColor=none;top=0;left=0;bottom=0;right=0;align=left;spacingLeft=6;" vertex="1" parent="1">
          <mxGeometry x="480" y="385" width="220" height="30" as="geometry" />
        </mxCell>
        <mxCell id="mPAn8IbKy9XAQSt9m1cG-45" value="Proveedor" style="shape=table;startSize=30;container=1;collapsible=1;childLayout=tableLayout;fixedRows=1;rowLines=0;fontStyle=1;align=center;resizeLast=1;" vertex="1" parent="1">
          <mxGeometry x="450" y="465" width="280" height="170" as="geometry" />
        </mxCell>
        <mxCell id="mPAn8IbKy9XAQSt9m1cG-46" value="" style="shape=partialRectangle;collapsible=0;dropTarget=0;pointerEvents=0;fillColor=none;points=[[0,0.5],[1,0.5]];portConstraint=eastwest;top=0;left=0;right=0;bottom=1;" vertex="1" parent="mPAn8IbKy9XAQSt9m1cG-45">
          <mxGeometry y="30" width="280" height="30" as="geometry" />
        </mxCell>
        <mxCell id="mPAn8IbKy9XAQSt9m1cG-47" value="PK" style="shape=partialRectangle;overflow=hidden;connectable=0;fillColor=none;top=0;left=0;bottom=0;right=0;fontStyle=1;" vertex="1" parent="mPAn8IbKy9XAQSt9m1cG-46">
          <mxGeometry width="30" height="30" as="geometry" />
        </mxCell>
        <mxCell id="mPAn8IbKy9XAQSt9m1cG-48" value="IdProveedor int NOT NULL " style="shape=partialRectangle;overflow=hidden;connectable=0;fillColor=none;top=0;left=0;bottom=0;right=0;align=left;spacingLeft=6;fontStyle=5;" vertex="1" parent="mPAn8IbKy9XAQSt9m1cG-46">
          <mxGeometry x="30" width="250" height="30" as="geometry" />
        </mxCell>
        <mxCell id="mPAn8IbKy9XAQSt9m1cG-49" value="" style="shape=partialRectangle;collapsible=0;dropTarget=0;pointerEvents=0;fillColor=none;points=[[0,0.5],[1,0.5]];portConstraint=eastwest;top=0;left=0;right=0;bottom=0;" vertex="1" parent="mPAn8IbKy9XAQSt9m1cG-45">
          <mxGeometry y="60" width="280" height="30" as="geometry" />
        </mxCell>
        <mxCell id="mPAn8IbKy9XAQSt9m1cG-50" value="" style="shape=partialRectangle;overflow=hidden;connectable=0;fillColor=none;top=0;left=0;bottom=0;right=0;fontStyle=0" vertex="1" parent="mPAn8IbKy9XAQSt9m1cG-49">
          <mxGeometry width="30" height="30" as="geometry" />
        </mxCell>
        <mxCell id="mPAn8IbKy9XAQSt9m1cG-51" value="nombre_proveedor int NOT NULL" style="shape=partialRectangle;overflow=hidden;connectable=0;fillColor=none;top=0;left=0;bottom=0;right=0;align=left;spacingLeft=6;fontStyle=0" vertex="1" parent="mPAn8IbKy9XAQSt9m1cG-49">
          <mxGeometry x="30" width="250" height="30" as="geometry" />
        </mxCell>
        <mxCell id="mPAn8IbKy9XAQSt9m1cG-52" value="" style="shape=partialRectangle;collapsible=0;dropTarget=0;pointerEvents=0;fillColor=none;points=[[0,0.5],[1,0.5]];portConstraint=eastwest;top=0;left=0;right=0;bottom=0;" vertex="1" parent="mPAn8IbKy9XAQSt9m1cG-45">
          <mxGeometry y="90" width="280" height="30" as="geometry" />
        </mxCell>
        <mxCell id="mPAn8IbKy9XAQSt9m1cG-53" value="" style="shape=partialRectangle;overflow=hidden;connectable=0;fillColor=none;top=0;left=0;bottom=0;right=0;" vertex="1" parent="mPAn8IbKy9XAQSt9m1cG-52">
          <mxGeometry width="30" height="30" as="geometry" />
        </mxCell>
        <mxCell id="mPAn8IbKy9XAQSt9m1cG-54" value="Vendedor_proveedor char(50) NOT NULL" style="shape=partialRectangle;overflow=hidden;connectable=0;fillColor=none;top=0;left=0;bottom=0;right=0;align=left;spacingLeft=6;" vertex="1" parent="mPAn8IbKy9XAQSt9m1cG-52">
          <mxGeometry x="30" width="250" height="30" as="geometry" />
        </mxCell>
        <mxCell id="mPAn8IbKy9XAQSt9m1cG-55" value="FK1" style="text;html=1;align=center;verticalAlign=middle;resizable=0;points=[];autosize=1;" vertex="1" parent="1">
          <mxGeometry x="110" y="245" width="40" height="20" as="geometry" />
        </mxCell>
        <mxCell id="mPAn8IbKy9XAQSt9m1cG-56" value="" style="endArrow=classic;startArrow=classic;html=1;entryX=0;entryY=0.5;entryDx=0;entryDy=0;exitX=1;exitY=0.5;exitDx=0;exitDy=0;" edge="1" parent="1" source="mPAn8IbKy9XAQSt9m1cG-23" target="mPAn8IbKy9XAQSt9m1cG-40">
          <mxGeometry width="50" height="50" relative="1" as="geometry">
            <mxPoint x="70" y="430" as="sourcePoint" />
            <mxPoint x="120" y="380" as="targetPoint" />
            <Array as="points">
              <mxPoint x="400" y="365" />
              <mxPoint x="400" y="375" />
            </Array>
          </mxGeometry>
        </mxCell>
      </root>
    </mxGraphModel>
  </diagram>
</mxfile>
>>>>>>> efd913b2176a8cdae3dc72d148aff52a99fcc119
